<svg width="40" height="40" viewBox="0 0 40 40" fill="none" xmlns="http://www.w3.org/2000/svg">
<rect width="40" height="40" rx="10" fill="white"/>
<path d="M19.7148 7.69141H14.2852V12.8672H9.46094V16.8711H14.2852V26.4805C14.2852 27.8737 14.4674 29.0716 14.832 30.0742C15.1966 31.0638 15.7174 31.8776 16.3945 32.5156C17.0586 33.1667 17.8594 33.6484 18.7969 33.9609C19.7474 34.2604 20.8021 34.4102 21.9609 34.4102C22.5599 34.4102 23.1654 34.3776 23.7773 34.3125C24.4023 34.2604 25.0013 34.1823 25.5742 34.0781C26.1471 33.974 26.6875 33.8438 27.1953 33.6875C27.7031 33.5182 28.1458 33.3229 28.5234 33.1016L27.9961 29.3711C27.7487 29.4362 27.4492 29.5013 27.0977 29.5664C26.7591 29.6315 26.3945 29.6901 26.0039 29.7422C25.6003 29.8073 25.1771 29.8594 24.7344 29.8984C24.3047 29.9375 23.8815 29.957 23.4648 29.957C22.8919 29.957 22.3711 29.8919 21.9023 29.7617C21.4466 29.6315 21.056 29.4102 20.7305 29.0977C20.4049 28.7982 20.151 28.3945 19.9688 27.8867C19.7995 27.3659 19.7148 26.7214 19.7148 25.9531V16.8711H27.6055V12.8672H19.7148V7.69141Z" fill="black"/>
</svg>
